<mxfile host="app.diagrams.net" modified="2020-04-12T19:20:16.743Z" agent="5.0 (Macintosh; Intel Mac OS X 10_14_6) AppleWebKit/537.36 (KHTML, like Gecko) Chrome/80.0.3987.149 Safari/537.36" etag="ZqhyW6kWulQJByoJuYSf" version="12.9.11" type="github">
  <diagram id="owObJZrdY-s8OAMLS9mF" name="Page-1">
    <mxGraphModel dx="2493" dy="679" grid="1" gridSize="10" guides="1" tooltips="1" connect="1" arrows="1" fold="1" page="1" pageScale="1" pageWidth="827" pageHeight="1169" math="0" shadow="0">
      <root>
        <mxCell id="0" />
        <mxCell id="1" parent="0" />
        <mxCell id="9Q9kXvsIyXgD9PoWU7tg-1" value="" style="whiteSpace=wrap;html=1;aspect=fixed;fillColor=#FFCCE6;" parent="1" vertex="1">
          <mxGeometry x="50" width="250" height="250" as="geometry" />
        </mxCell>
        <mxCell id="9Q9kXvsIyXgD9PoWU7tg-2" value="" style="whiteSpace=wrap;html=1;aspect=fixed;fillColor=#FFB366;" parent="1" vertex="1">
          <mxGeometry x="72.5" y="22.5" width="205" height="205" as="geometry" />
        </mxCell>
        <mxCell id="9Q9kXvsIyXgD9PoWU7tg-3" value="&amp;lt;container&amp;gt;&lt;br&gt;&lt;b&gt;Single-Page Application.&lt;/b&gt;&lt;br&gt;(JScript, Angular, CSS)&lt;br&gt;&amp;nbsp;&lt;br&gt;Provides all Online Shopping functionalities to customers via Browser." style="whiteSpace=wrap;html=1;aspect=fixed;fillColor=#A9C4EB;" parent="1" vertex="1">
          <mxGeometry x="105" y="70" width="145" height="145" as="geometry" />
        </mxCell>
        <mxCell id="9Q9kXvsIyXgD9PoWU7tg-4" value="&lt;b&gt;Web Browser&lt;/b&gt;&lt;br&gt;[Chrome, Safari, IE]" style="text;html=1;strokeColor=none;fillColor=none;align=center;verticalAlign=middle;whiteSpace=wrap;rounded=0;" parent="1" vertex="1">
          <mxGeometry x="110" y="40" width="120" height="20" as="geometry" />
        </mxCell>
        <mxCell id="9Q9kXvsIyXgD9PoWU7tg-7" value="" style="whiteSpace=wrap;html=1;aspect=fixed;fillColor=#E6D0DE;" parent="1" vertex="1">
          <mxGeometry x="-40" y="380" width="250" height="250" as="geometry" />
        </mxCell>
        <mxCell id="9Q9kXvsIyXgD9PoWU7tg-8" value="" style="whiteSpace=wrap;html=1;aspect=fixed;fillColor=#CDA2BE;" parent="1" vertex="1">
          <mxGeometry x="-17.5" y="402.5" width="205" height="205" as="geometry" />
        </mxCell>
        <mxCell id="9Q9kXvsIyXgD9PoWU7tg-9" value="&amp;lt;container&amp;gt;&lt;br&gt;&lt;b&gt;Web Application.&lt;/b&gt;&lt;br&gt;(MVC, JScript, Angular)&lt;br&gt;&amp;nbsp;&lt;br&gt;&lt;br&gt;Caters static contents, single page shopping application." style="whiteSpace=wrap;html=1;aspect=fixed;fillColor=#FFE599;" parent="1" vertex="1">
          <mxGeometry x="15" y="450" width="145" height="145" as="geometry" />
        </mxCell>
        <mxCell id="9Q9kXvsIyXgD9PoWU7tg-10" value="" style="whiteSpace=wrap;html=1;aspect=fixed;fillColor=#F19C99;" parent="1" vertex="1">
          <mxGeometry x="430" y="380" width="250" height="250" as="geometry" />
        </mxCell>
        <mxCell id="9Q9kXvsIyXgD9PoWU7tg-11" value="" style="whiteSpace=wrap;html=1;aspect=fixed;fillColor=#FFD966;" parent="1" vertex="1">
          <mxGeometry x="452.5" y="402.5" width="205" height="205" as="geometry" />
        </mxCell>
        <mxCell id="9Q9kXvsIyXgD9PoWU7tg-12" value="&amp;lt;container&amp;gt;&lt;br&gt;&lt;b&gt;API Application&lt;/b&gt;&lt;br&gt;(MVC, Java, Spring)&lt;br&gt;&amp;nbsp;&lt;br&gt;Provides all Shopping functionalities via JSON/HTTPS or REST APIs." style="whiteSpace=wrap;html=1;aspect=fixed;fillColor=#A9C4EB;" parent="1" vertex="1">
          <mxGeometry x="485" y="450" width="145" height="145" as="geometry" />
        </mxCell>
        <mxCell id="9Q9kXvsIyXgD9PoWU7tg-16" value="" style="whiteSpace=wrap;html=1;aspect=fixed;fillColor=#67AB9F;" parent="1" vertex="1">
          <mxGeometry x="-40" y="770" width="250" height="250" as="geometry" />
        </mxCell>
        <mxCell id="9Q9kXvsIyXgD9PoWU7tg-17" value="" style="whiteSpace=wrap;html=1;aspect=fixed;fillColor=#A680B8;" parent="1" vertex="1">
          <mxGeometry x="-17.5" y="792.5" width="205" height="205" as="geometry" />
        </mxCell>
        <mxCell id="9Q9kXvsIyXgD9PoWU7tg-22" value="Apache Tomcat, Nodejs&amp;nbsp;" style="text;html=1;strokeColor=none;fillColor=none;align=center;verticalAlign=middle;whiteSpace=wrap;rounded=0;" parent="1" vertex="1">
          <mxGeometry x="7.5" y="420" width="160" height="20" as="geometry" />
        </mxCell>
        <mxCell id="9Q9kXvsIyXgD9PoWU7tg-23" value="Container Cluster&lt;br&gt;API Application, &lt;b&gt;Microservices&lt;/b&gt;" style="text;html=1;strokeColor=none;fillColor=none;align=center;verticalAlign=middle;whiteSpace=wrap;rounded=0;" parent="1" vertex="1">
          <mxGeometry x="472.5" y="410" width="170" height="30" as="geometry" />
        </mxCell>
        <mxCell id="9Q9kXvsIyXgD9PoWU7tg-41" value="" style="whiteSpace=wrap;html=1;aspect=fixed;fillColor=#F19C99;" parent="1" vertex="1">
          <mxGeometry x="760" y="380" width="250" height="250" as="geometry" />
        </mxCell>
        <mxCell id="9Q9kXvsIyXgD9PoWU7tg-42" value="" style="whiteSpace=wrap;html=1;aspect=fixed;fillColor=#FFD966;" parent="1" vertex="1">
          <mxGeometry x="782.5" y="402.5" width="205" height="205" as="geometry" />
        </mxCell>
        <mxCell id="9Q9kXvsIyXgD9PoWU7tg-43" value="&amp;lt;container&amp;gt;&lt;br&gt;&lt;b&gt;API Application&lt;/b&gt;&lt;br&gt;(MVC, Java, Spring)&lt;br&gt;&amp;nbsp;&lt;br&gt;Provides all Shopping functionalities via JSON/HTTPS or REST APIs." style="whiteSpace=wrap;html=1;aspect=fixed;fillColor=#A9C4EB;" parent="1" vertex="1">
          <mxGeometry x="815" y="450" width="145" height="145" as="geometry" />
        </mxCell>
        <mxCell id="9Q9kXvsIyXgD9PoWU7tg-44" value="Container Cluster&lt;br&gt;API Application, &lt;b&gt;Microservices&lt;/b&gt;" style="text;html=1;strokeColor=none;fillColor=none;align=center;verticalAlign=middle;whiteSpace=wrap;rounded=0;" parent="1" vertex="1">
          <mxGeometry x="802.5" y="410" width="170" height="30" as="geometry" />
        </mxCell>
        <mxCell id="9Q9kXvsIyXgD9PoWU7tg-45" value="" style="whiteSpace=wrap;html=1;aspect=fixed;fillColor=#F19C99;" parent="1" vertex="1">
          <mxGeometry x="1080" y="380" width="250" height="250" as="geometry" />
        </mxCell>
        <mxCell id="9Q9kXvsIyXgD9PoWU7tg-46" value="" style="whiteSpace=wrap;html=1;aspect=fixed;fillColor=#FFD966;" parent="1" vertex="1">
          <mxGeometry x="1102.5" y="402.5" width="205" height="205" as="geometry" />
        </mxCell>
        <mxCell id="9Q9kXvsIyXgD9PoWU7tg-47" value="&amp;lt;container&amp;gt;&lt;br&gt;&lt;b&gt;API Application&lt;/b&gt;&lt;br&gt;(MVC, Java, Spring)&lt;br&gt;&amp;nbsp;&lt;br&gt;Provides all Shopping functionalities via JSON/HTTPS or REST APIs." style="whiteSpace=wrap;html=1;aspect=fixed;fillColor=#A9C4EB;" parent="1" vertex="1">
          <mxGeometry x="1135" y="450" width="145" height="145" as="geometry" />
        </mxCell>
        <mxCell id="9Q9kXvsIyXgD9PoWU7tg-48" value="Container Cluster&lt;br&gt;API Application, &lt;b&gt;Microservices&lt;/b&gt;" style="text;html=1;strokeColor=none;fillColor=none;align=center;verticalAlign=middle;whiteSpace=wrap;rounded=0;" parent="1" vertex="1">
          <mxGeometry x="1122.5" y="410" width="170" height="25" as="geometry" />
        </mxCell>
        <mxCell id="9Q9kXvsIyXgD9PoWU7tg-50" value="&lt;span&gt;&amp;lt;container&amp;gt;&lt;/span&gt;&lt;br&gt;&lt;span&gt;Databases&lt;/span&gt;&lt;br&gt;&lt;b&gt;[RDBMS Schema]&lt;/b&gt;&lt;br&gt;&lt;br&gt;&lt;span&gt;&amp;nbsp;&lt;/span&gt;&lt;br&gt;&lt;span&gt;Database for customer information (e.g. account details, address, order history, preferences etc.), payments methods&lt;/span&gt;" style="strokeWidth=2;html=1;shape=mxgraph.flowchart.database;whiteSpace=wrap;fillColor=#3399FF;" parent="1" vertex="1">
          <mxGeometry x="-6.25" y="822.5" width="182.5" height="145" as="geometry" />
        </mxCell>
        <mxCell id="9Q9kXvsIyXgD9PoWU7tg-51" value="" style="whiteSpace=wrap;html=1;aspect=fixed;fillColor=#67AB9F;" parent="1" vertex="1">
          <mxGeometry x="430" y="770" width="250" height="250" as="geometry" />
        </mxCell>
        <mxCell id="9Q9kXvsIyXgD9PoWU7tg-52" value="" style="whiteSpace=wrap;html=1;aspect=fixed;fillColor=#A680B8;" parent="1" vertex="1">
          <mxGeometry x="452.5" y="792.5" width="205" height="205" as="geometry" />
        </mxCell>
        <mxCell id="9Q9kXvsIyXgD9PoWU7tg-53" value="&lt;span&gt;&amp;lt;container&amp;gt;&lt;/span&gt;&lt;br&gt;&lt;span&gt;Databases&lt;/span&gt;&lt;br&gt;&lt;b&gt;[RDBMS Schema]&lt;/b&gt;&lt;br&gt;&lt;br&gt;&lt;span&gt;&amp;nbsp;&lt;/span&gt;&lt;br&gt;&lt;span&gt;Database for customer information (e.g. account details, address, order history, preferences etc.), payments methods&lt;/span&gt;" style="strokeWidth=2;html=1;shape=mxgraph.flowchart.database;whiteSpace=wrap;fillColor=#FFCE9F;" parent="1" vertex="1">
          <mxGeometry x="463.75" y="822.5" width="182.5" height="145" as="geometry" />
        </mxCell>
        <mxCell id="9Q9kXvsIyXgD9PoWU7tg-54" value="" style="whiteSpace=wrap;html=1;aspect=fixed;fillColor=#67AB9F;" parent="1" vertex="1">
          <mxGeometry x="910" y="770" width="250" height="250" as="geometry" />
        </mxCell>
        <mxCell id="9Q9kXvsIyXgD9PoWU7tg-55" value="&lt;span style=&quot;font-family: monospace ; font-size: 0px&quot;&gt;%3CmxGraphModel%3E%3Croot%3E%3CmxCell%20id%3D%220%22%2F%3E%3CmxCell%20id%3D%221%22%20parent%3D%220%22%2F%3E%3CmxCell%20id%3D%222%22%20value%3D%22Master%20DB%22%20style%3D%22text%3Bhtml%3D1%3BstrokeColor%3Dnone%3BfillColor%3Dnone%3Balign%3Dcenter%3BverticalAlign%3Dmiddle%3BwhiteSpace%3Dwrap%3Brounded%3D0%3B%22%20vertex%3D%221%22%20parent%3D%221%22%3E%3CmxGeometry%20x%3D%22-16%22%20y%3D%22792.5%22%20width%3D%2266%22%20height%3D%2220%22%20as%3D%22geometry%22%2F%3E%3C%2FmxCell%3E%3C%2Froot%3E%3C%2FmxGraphModel%3E&lt;/span&gt;" style="whiteSpace=wrap;html=1;aspect=fixed;fillColor=#A680B8;" parent="1" vertex="1">
          <mxGeometry x="932.5" y="792.5" width="205" height="205" as="geometry" />
        </mxCell>
        <mxCell id="9Q9kXvsIyXgD9PoWU7tg-56" value="&lt;span&gt;&amp;lt;container&amp;gt;&lt;/span&gt;&lt;br&gt;&lt;span&gt;Databases&lt;/span&gt;&lt;br&gt;&lt;b&gt;[RDBMS Schema]&lt;/b&gt;&lt;br&gt;&lt;br&gt;&lt;span&gt;&amp;nbsp;&lt;/span&gt;&lt;br&gt;&lt;span&gt;Database for customer information (e.g. account details, address, order history, preferences etc.), payments methods&lt;/span&gt;" style="strokeWidth=2;html=1;shape=mxgraph.flowchart.database;whiteSpace=wrap;fillColor=#FFB366;" parent="1" vertex="1">
          <mxGeometry x="943.75" y="822.5" width="182.5" height="145" as="geometry" />
        </mxCell>
        <mxCell id="9Q9kXvsIyXgD9PoWU7tg-57" value="&lt;b&gt;Master DB&lt;/b&gt;" style="text;html=1;strokeColor=none;fillColor=none;align=center;verticalAlign=middle;whiteSpace=wrap;rounded=0;" parent="1" vertex="1">
          <mxGeometry x="-16" y="792.5" width="66" height="20" as="geometry" />
        </mxCell>
        <mxCell id="9Q9kXvsIyXgD9PoWU7tg-58" value="&lt;b&gt;Slave DB&lt;/b&gt;" style="text;html=1;strokeColor=none;fillColor=none;align=center;verticalAlign=middle;whiteSpace=wrap;rounded=0;" parent="1" vertex="1">
          <mxGeometry x="452.5" y="792.5" width="66" height="20" as="geometry" />
        </mxCell>
        <mxCell id="9Q9kXvsIyXgD9PoWU7tg-59" value="&lt;b&gt;Backup DB&lt;/b&gt;" style="text;html=1;strokeColor=none;fillColor=none;align=center;verticalAlign=middle;whiteSpace=wrap;rounded=0;" parent="1" vertex="1">
          <mxGeometry x="932.5" y="792.5" width="67.5" height="20" as="geometry" />
        </mxCell>
        <mxCell id="9Q9kXvsIyXgD9PoWU7tg-60" value="" style="whiteSpace=wrap;html=1;aspect=fixed;fillColor=#FFCCE6;" parent="1" vertex="1">
          <mxGeometry x="802.5" width="250" height="250" as="geometry" />
        </mxCell>
        <mxCell id="9Q9kXvsIyXgD9PoWU7tg-61" value="" style="whiteSpace=wrap;html=1;aspect=fixed;fillColor=#FF9933;" parent="1" vertex="1">
          <mxGeometry x="825" y="22.5" width="205" height="205" as="geometry" />
        </mxCell>
        <mxCell id="9Q9kXvsIyXgD9PoWU7tg-62" value="&amp;lt;container&amp;gt;&lt;br&gt;&lt;b&gt;Corona SDK, Flutter.&lt;/b&gt;&lt;br&gt;(iOS and Android)&lt;br&gt;&amp;nbsp;&lt;br&gt;Enable cross platform customer for Online Shipping.&lt;span style=&quot;font-family: monospace ; font-size: 0px&quot;&gt;3CmxGraphModel%3E%3Croot%3E%3CmxCell%20id%3D%220%22%2F%3E%3CmxCell%20id%3D%221%22%20parent%3D%220%22%2F%3E%3CmxCell%20id%3D%222%22%20value%3D%22%26amp%3Blt%3Bcontainer%26amp%3Bgt%3B%26lt%3Bbr%26gt%3B%26lt%3Bb%26gt%3BMobile%26lt%3B%2Fb%26gt%3B%20%26lt%3Bb%26gt%3BApplication%26lt%3B%2Fb%26gt%3B%26lt%3Bbr%26gt%3B(Corona%20SDK%2C%20Flutter)%26lt%3Bbr%26gt%3B%26lt%3Bbr%26gt%3B%26lt%3Bbr%26gt%3BEnable%20cross%20platform%20customer%20for%20Online%20Shipping.%22%20style%3D%22whiteSpace%3Dwrap%3Bhtml%3D1%3Baspect%3Dfixed%3BfillColor%3D%2354C0FF%3B%22%20vertex%3D%221%22%20parent%3D%221%22%3E%3CmxGeometry%20x%3D%22-400%22%20y%3D%2230%22%20width%3D%22170%22%20height%3D%22170%22%20as%3D%22geometry%22%2F%3E%3C%2FmxCell%3E%3C%2Froot%3E%3C%2FmxGraphModel%3E&lt;/span&gt;" style="whiteSpace=wrap;html=1;aspect=fixed;fillColor=#A9C4EB;" parent="1" vertex="1">
          <mxGeometry x="857.5" y="70" width="145" height="145" as="geometry" />
        </mxCell>
        <mxCell id="9Q9kXvsIyXgD9PoWU7tg-63" value="&lt;b&gt;Mobile Application&lt;/b&gt;&lt;br&gt;[iOS and Android]" style="text;html=1;strokeColor=none;fillColor=none;align=center;verticalAlign=middle;whiteSpace=wrap;rounded=0;" parent="1" vertex="1">
          <mxGeometry x="862.5" y="40" width="120" height="20" as="geometry" />
        </mxCell>
        <mxCell id="tCtJsyqHLL7J9NboLCpt-4" value="" style="endArrow=none;html=1;" edge="1" parent="1">
          <mxGeometry width="50" height="50" relative="1" as="geometry">
            <mxPoint x="-80" y="1080" as="sourcePoint" />
            <mxPoint x="-80" y="360" as="targetPoint" />
          </mxGeometry>
        </mxCell>
        <mxCell id="tCtJsyqHLL7J9NboLCpt-5" value="" style="endArrow=none;html=1;" edge="1" parent="1">
          <mxGeometry width="50" height="50" relative="1" as="geometry">
            <mxPoint x="1360" y="1080" as="sourcePoint" />
            <mxPoint x="1360" y="360" as="targetPoint" />
          </mxGeometry>
        </mxCell>
        <mxCell id="tCtJsyqHLL7J9NboLCpt-6" value="" style="endArrow=none;html=1;" edge="1" parent="1">
          <mxGeometry width="50" height="50" relative="1" as="geometry">
            <mxPoint x="620" y="830" as="sourcePoint" />
            <mxPoint x="670" y="780" as="targetPoint" />
          </mxGeometry>
        </mxCell>
        <mxCell id="tCtJsyqHLL7J9NboLCpt-7" value="" style="endArrow=none;html=1;" edge="1" parent="1">
          <mxGeometry width="50" height="50" relative="1" as="geometry">
            <mxPoint x="-80" y="360" as="sourcePoint" />
            <mxPoint x="1360" y="360" as="targetPoint" />
          </mxGeometry>
        </mxCell>
        <mxCell id="tCtJsyqHLL7J9NboLCpt-8" value="" style="endArrow=none;html=1;" edge="1" parent="1">
          <mxGeometry width="50" height="50" relative="1" as="geometry">
            <mxPoint x="-80" y="1080" as="sourcePoint" />
            <mxPoint x="1360" y="1080" as="targetPoint" />
          </mxGeometry>
        </mxCell>
        <mxCell id="tCtJsyqHLL7J9NboLCpt-9" value="" style="shape=link;html=1;" edge="1" parent="1">
          <mxGeometry width="50" height="50" relative="1" as="geometry">
            <mxPoint x="370" y="640" as="sourcePoint" />
            <mxPoint x="370" y="370" as="targetPoint" />
          </mxGeometry>
        </mxCell>
        <mxCell id="tCtJsyqHLL7J9NboLCpt-10" value="" style="shape=link;html=1;" edge="1" parent="1">
          <mxGeometry width="50" height="50" relative="1" as="geometry">
            <mxPoint x="1350" y="640" as="sourcePoint" />
            <mxPoint x="1350" y="370" as="targetPoint" />
          </mxGeometry>
        </mxCell>
        <mxCell id="tCtJsyqHLL7J9NboLCpt-11" value="" style="shape=link;html=1;" edge="1" parent="1">
          <mxGeometry width="50" height="50" relative="1" as="geometry">
            <mxPoint x="370" y="370" as="sourcePoint" />
            <mxPoint x="1350" y="370" as="targetPoint" />
          </mxGeometry>
        </mxCell>
        <mxCell id="tCtJsyqHLL7J9NboLCpt-12" value="" style="shape=link;html=1;" edge="1" parent="1">
          <mxGeometry width="50" height="50" relative="1" as="geometry">
            <mxPoint x="370" y="640" as="sourcePoint" />
            <mxPoint x="1350" y="640" as="targetPoint" />
          </mxGeometry>
        </mxCell>
        <mxCell id="tCtJsyqHLL7J9NboLCpt-13" value="" style="endArrow=none;dashed=1;html=1;fontStyle=1" edge="1" parent="1">
          <mxGeometry width="50" height="50" relative="1" as="geometry">
            <mxPoint x="-50" y="760" as="sourcePoint" />
            <mxPoint x="1200" y="760" as="targetPoint" />
          </mxGeometry>
        </mxCell>
        <mxCell id="tCtJsyqHLL7J9NboLCpt-14" value="" style="endArrow=none;dashed=1;html=1;" edge="1" parent="1">
          <mxGeometry width="50" height="50" relative="1" as="geometry">
            <mxPoint x="-50" y="1040" as="sourcePoint" />
            <mxPoint x="1200" y="1040" as="targetPoint" />
          </mxGeometry>
        </mxCell>
        <mxCell id="tCtJsyqHLL7J9NboLCpt-15" value="" style="endArrow=none;dashed=1;html=1;" edge="1" parent="1">
          <mxGeometry width="50" height="50" relative="1" as="geometry">
            <mxPoint x="-50" y="1040" as="sourcePoint" />
            <mxPoint x="-50" y="760" as="targetPoint" />
          </mxGeometry>
        </mxCell>
        <mxCell id="tCtJsyqHLL7J9NboLCpt-16" value="" style="endArrow=none;dashed=1;html=1;" edge="1" parent="1">
          <mxGeometry width="50" height="50" relative="1" as="geometry">
            <mxPoint x="1200" y="1040" as="sourcePoint" />
            <mxPoint x="1200" y="760" as="targetPoint" />
          </mxGeometry>
        </mxCell>
        <mxCell id="tCtJsyqHLL7J9NboLCpt-17" value="&lt;b&gt;Container Custer&lt;/b&gt;" style="text;html=1;strokeColor=none;fillColor=none;align=center;verticalAlign=middle;whiteSpace=wrap;rounded=0;" vertex="1" parent="1">
          <mxGeometry x="802.5" y="650" width="145" height="20" as="geometry" />
        </mxCell>
        <mxCell id="tCtJsyqHLL7J9NboLCpt-18" value="&lt;b&gt;Database Management System&lt;/b&gt;" style="text;html=1;strokeColor=none;fillColor=none;align=center;verticalAlign=middle;whiteSpace=wrap;rounded=0;" vertex="1" parent="1">
          <mxGeometry x="430" y="1050" width="201" height="20" as="geometry" />
        </mxCell>
        <mxCell id="tCtJsyqHLL7J9NboLCpt-20" value="" style="endArrow=classic;html=1;entryX=0.472;entryY=1.012;entryDx=0;entryDy=0;entryPerimeter=0;" edge="1" parent="1" target="9Q9kXvsIyXgD9PoWU7tg-1">
          <mxGeometry width="50" height="50" relative="1" as="geometry">
            <mxPoint x="80" y="380" as="sourcePoint" />
            <mxPoint x="130" y="340" as="targetPoint" />
          </mxGeometry>
        </mxCell>
        <mxCell id="tCtJsyqHLL7J9NboLCpt-23" value="&lt;b&gt;Delivers to&lt;/b&gt;" style="edgeLabel;html=1;align=center;verticalAlign=middle;resizable=0;points=[];" vertex="1" connectable="0" parent="tCtJsyqHLL7J9NboLCpt-20">
          <mxGeometry x="-0.2755" y="4" relative="1" as="geometry">
            <mxPoint as="offset" />
          </mxGeometry>
        </mxCell>
        <mxCell id="tCtJsyqHLL7J9NboLCpt-21" value="" style="endArrow=classic;html=1;entryX=1;entryY=0.5;entryDx=0;entryDy=0;" edge="1" parent="1" target="9Q9kXvsIyXgD9PoWU7tg-1">
          <mxGeometry width="50" height="50" relative="1" as="geometry">
            <mxPoint x="750" y="370" as="sourcePoint" />
            <mxPoint x="430" y="210" as="targetPoint" />
          </mxGeometry>
        </mxCell>
        <mxCell id="tCtJsyqHLL7J9NboLCpt-24" value="&lt;b&gt;Makes API calls to&lt;br&gt;&lt;/b&gt;&lt;b style=&quot;font-family: &amp;#34;helvetica&amp;#34;&quot;&gt;[JSON/HTTPS Connection]&lt;/b&gt;&lt;b&gt;&lt;br&gt;&lt;/b&gt;" style="edgeLabel;html=1;align=center;verticalAlign=middle;resizable=0;points=[];" vertex="1" connectable="0" parent="tCtJsyqHLL7J9NboLCpt-21">
          <mxGeometry x="-0.0009" relative="1" as="geometry">
            <mxPoint as="offset" />
          </mxGeometry>
        </mxCell>
        <mxCell id="tCtJsyqHLL7J9NboLCpt-22" value="" style="endArrow=classic;html=1;exitX=0.5;exitY=1;exitDx=0;exitDy=0;" edge="1" parent="1" source="9Q9kXvsIyXgD9PoWU7tg-60">
          <mxGeometry width="50" height="50" relative="1" as="geometry">
            <mxPoint x="970" y="310" as="sourcePoint" />
            <mxPoint x="928" y="370" as="targetPoint" />
          </mxGeometry>
        </mxCell>
        <mxCell id="tCtJsyqHLL7J9NboLCpt-26" value="&lt;b&gt;Makes API calls to&lt;br&gt;&lt;/b&gt;&lt;b style=&quot;font-family: &amp;#34;helvetica&amp;#34;&quot;&gt;[&lt;/b&gt;&lt;b style=&quot;font-family: &amp;#34;helvetica&amp;#34;&quot;&gt;JSON&lt;/b&gt;&lt;b style=&quot;font-family: &amp;#34;helvetica&amp;#34;&quot;&gt;/HTTPS Connection]&lt;/b&gt;&lt;b&gt;&lt;br&gt;&lt;/b&gt;" style="edgeLabel;html=1;align=center;verticalAlign=middle;resizable=0;points=[];" vertex="1" connectable="0" parent="tCtJsyqHLL7J9NboLCpt-22">
          <mxGeometry x="-0.3169" y="-3" relative="1" as="geometry">
            <mxPoint as="offset" />
          </mxGeometry>
        </mxCell>
        <mxCell id="tCtJsyqHLL7J9NboLCpt-27" value="&lt;b&gt;Shopping Web&lt;/b&gt;" style="text;html=1;strokeColor=none;fillColor=none;align=center;verticalAlign=middle;whiteSpace=wrap;rounded=0;" vertex="1" parent="1">
          <mxGeometry x="-40" y="382.5" width="112" height="20" as="geometry" />
        </mxCell>
        <mxCell id="tCtJsyqHLL7J9NboLCpt-28" value="&lt;b&gt;Shopping API&lt;/b&gt;" style="text;html=1;strokeColor=none;fillColor=none;align=center;verticalAlign=middle;whiteSpace=wrap;rounded=0;" vertex="1" parent="1">
          <mxGeometry x="420" y="380" width="112" height="20" as="geometry" />
        </mxCell>
        <mxCell id="tCtJsyqHLL7J9NboLCpt-29" value="&lt;b&gt;Shopping API&lt;/b&gt;" style="text;html=1;strokeColor=none;fillColor=none;align=center;verticalAlign=middle;whiteSpace=wrap;rounded=0;" vertex="1" parent="1">
          <mxGeometry x="750.5" y="380" width="112" height="20" as="geometry" />
        </mxCell>
        <mxCell id="tCtJsyqHLL7J9NboLCpt-30" value="&lt;b&gt;Shopping API&lt;/b&gt;" style="text;html=1;strokeColor=none;fillColor=none;align=center;verticalAlign=middle;whiteSpace=wrap;rounded=0;" vertex="1" parent="1">
          <mxGeometry x="1070" y="380" width="112" height="20" as="geometry" />
        </mxCell>
        <mxCell id="tCtJsyqHLL7J9NboLCpt-32" value="&lt;b&gt;SQL Writes to&lt;br&gt;[JDBC]&lt;br&gt;&lt;/b&gt;" style="endArrow=classic;html=1;entryX=0.5;entryY=0;entryDx=0;entryDy=0;" edge="1" parent="1" target="9Q9kXvsIyXgD9PoWU7tg-16">
          <mxGeometry width="50" height="50" relative="1" as="geometry">
            <mxPoint x="510" y="640" as="sourcePoint" />
            <mxPoint x="540" y="650" as="targetPoint" />
          </mxGeometry>
        </mxCell>
        <mxCell id="tCtJsyqHLL7J9NboLCpt-33" value="" style="endArrow=classic;html=1;entryX=0.5;entryY=0;entryDx=0;entryDy=0;" edge="1" parent="1" target="9Q9kXvsIyXgD9PoWU7tg-51">
          <mxGeometry width="50" height="50" relative="1" as="geometry">
            <mxPoint x="820" y="640" as="sourcePoint" />
            <mxPoint x="710" y="690" as="targetPoint" />
          </mxGeometry>
        </mxCell>
        <mxCell id="tCtJsyqHLL7J9NboLCpt-34" value="&lt;b&gt;SQL Reads to&lt;br&gt;[JDBC]&lt;/b&gt;" style="edgeLabel;html=1;align=center;verticalAlign=middle;resizable=0;points=[];" vertex="1" connectable="0" parent="tCtJsyqHLL7J9NboLCpt-33">
          <mxGeometry x="0.1272" y="1" relative="1" as="geometry">
            <mxPoint as="offset" />
          </mxGeometry>
        </mxCell>
        <mxCell id="tCtJsyqHLL7J9NboLCpt-35" value="" style="endArrow=classic;html=1;exitX=1;exitY=0.5;exitDx=0;exitDy=0;entryX=0;entryY=0.5;entryDx=0;entryDy=0;" edge="1" parent="1" source="9Q9kXvsIyXgD9PoWU7tg-16" target="9Q9kXvsIyXgD9PoWU7tg-51">
          <mxGeometry width="50" height="50" relative="1" as="geometry">
            <mxPoint x="220" y="920" as="sourcePoint" />
            <mxPoint x="270" y="870" as="targetPoint" />
          </mxGeometry>
        </mxCell>
        <mxCell id="tCtJsyqHLL7J9NboLCpt-36" value="&lt;b&gt;Replication&lt;/b&gt;" style="edgeLabel;html=1;align=center;verticalAlign=middle;resizable=0;points=[];" vertex="1" connectable="0" parent="tCtJsyqHLL7J9NboLCpt-35">
          <mxGeometry x="0.1091" y="-2" relative="1" as="geometry">
            <mxPoint as="offset" />
          </mxGeometry>
        </mxCell>
        <mxCell id="tCtJsyqHLL7J9NboLCpt-37" value="" style="endArrow=classic;html=1;exitX=1;exitY=0.5;exitDx=0;exitDy=0;entryX=0;entryY=0.5;entryDx=0;entryDy=0;" edge="1" parent="1" source="9Q9kXvsIyXgD9PoWU7tg-51" target="9Q9kXvsIyXgD9PoWU7tg-54">
          <mxGeometry width="50" height="50" relative="1" as="geometry">
            <mxPoint x="690" y="920" as="sourcePoint" />
            <mxPoint x="740" y="870" as="targetPoint" />
          </mxGeometry>
        </mxCell>
        <mxCell id="tCtJsyqHLL7J9NboLCpt-38" value="&lt;b&gt;Delayed Replica&lt;/b&gt;" style="edgeLabel;html=1;align=center;verticalAlign=middle;resizable=0;points=[];" vertex="1" connectable="0" parent="tCtJsyqHLL7J9NboLCpt-37">
          <mxGeometry x="-0.087" relative="1" as="geometry">
            <mxPoint as="offset" />
          </mxGeometry>
        </mxCell>
      </root>
    </mxGraphModel>
  </diagram>
</mxfile>
